<svg xmlns="http://www.w3.org/2000/svg" viewBox="0 0 679.97 229.94"><defs><style>.cls-1{fill:#001ecc;}</style></defs><g id="Layer_2" data-name="Layer 2"><g id="Layer_1-2" data-name="Layer 1"><path class="cls-1" d="M128.07,90.58A45.5,45.5,0,0,0,102.5,7.44H10v35H5a5,5,0,0,0-5,5v34a5,5,0,0,0,5,5h5v92H40.07a4.28,4.28,0,0,1-.07-.72v-9.55a3.73,3.73,0,0,1,3.73-3.73H98.27a3.73,3.73,0,0,1,3.73,3.73v9.55a4.28,4.28,0,0,1-.07.72H109a46,46,0,0,0,19.07-87.86ZM8,82.44v-36h2v36Zm26.73,55a8.91,8.91,0,1,1,8.91-8.91A8.91,8.91,0,0,1,34.73,137.48ZM91.5,86.06,107.71,82l-.06-.27L80,86.06H55.33L71.54,82l-.06-.27-27.7,4.37H38.89A12.89,12.89,0,0,1,26,73.17V44.76A12.89,12.89,0,0,1,38.89,31.87h64.22A12.89,12.89,0,0,1,116,44.76V73.17a12.89,12.89,0,0,1-12.89,12.89Zm15.77,51.42a8.91,8.91,0,1,1,8.91-8.91A8.91,8.91,0,0,1,107.27,137.48Zm101.73,41H173v-123h36Zm0-153h0a18,18,0,0,1-18,18h0a18,18,0,0,1-18-18h0a18,18,0,0,1,18-18h0A18,18,0,0,1,209,25.44Zm121,0h0a18,18,0,0,1-18,18h0a18,18,0,0,1-18-18h0a18,18,0,0,1,18-18h0A18,18,0,0,1,330,25.44Zm0,153H294v-123h36Zm-60,0H234V7.44h36Zm155.87-5.91c-14.58,6.47-29.24,8.76-43.86,2.91q-2.22-.88-4.44-2c-10.58-5.46-15.91-15.3-16.41-26.8-.87-20-.66-40-.9-59.93,0-2.16,0-4.32,0-7H344.07v-.25H344v-27h16v-36h36V52.15h27.71V79.22H395v9.35c0,14,.25,28,0,42a29.67,29.67,0,0,0,1,9.08c2.72,9.08,10.8,9.8,22,8.26,1.13-.16,2.24-.53,4-1C423.28,155.4,424.53,163.69,425.87,172.53ZM493,48.44c-34.79,0-63,29.1-63,65s28.21,65,63,65,63-29.1,63-65S527.79,48.44,493,48.44Zm0,95.95c-16.57,0-30-13.85-30-30.95s13.43-30.95,30-30.95,30,13.86,30,31S509.57,144.39,493,144.39ZM451.68,173a70.12,70.12,0,0,0,18.71,9.88c-1.27.86-2.53,1.74-3.81,2.6-3.19,2.12-6.39,4.24-9.66,6.31l-4.8,3c-.86.53-1.88,1.15-2.85,1.69s-1.88,1-2.75,1.45l-5.13,2.56-2.62,1.28c-.9.45-1.84.87-2.76,1.29a96.15,96.15,0,0,1-11.54,4.35c-3.9,1.2-7.71,2.12-11.42,3l-11.12,2.59a218.87,218.87,0,0,1-23,3.64c-15.13,1.65-30.31,2.87-45.48,3.49s-30.34.77-45.48.48-30.25-1-45.32-2-30.13-2.55-45-3.6c-59.47-4.16-119.58,1.49-177.86,14.83h0A3.51,3.51,0,0,1,18.2,223a700.36,700.36,0,0,1,89.31-15.26,603.92,603.92,0,0,1,90.73-2.65c7.59.34,15.1.9,22.57,1.36s15,.87,22.43,1.21c14.93.67,29.86,1,44.77.92a602,602,0,0,0,88.9-6.66,203.21,203.21,0,0,0,21.33-4.26l10.72-3c3.56-1,7-2,10.25-3.19a79.13,79.13,0,0,0,9.36-4c.76-.39,1.53-.78,2.29-1.2l2.38-1.31,4.84-2.71c.78-.44,1.52-.87,2.17-1.27s1.23-.79,1.94-1.29l4.58-3.21C448.41,175.36,450.05,174.18,451.68,173ZM678.37,16.11l0,.08a107.15,107.15,0,0,1-6.8,9.42q-3.59,4.49-7.4,8.7c-5.08,5.62-10.44,10.92-16,16q-7.7,7-15.9,13.42l1.87,83.59a8.79,8.79,0,0,1-5.62,8.41l-2.32.89a2,2,0,0,1-2.67-1.29L601.83,85.48c-2.6,1.86-5.18,3.74-7.73,5.67l-17.94,13.74q-6.07,4.65-12.18,9.29c0-.25,0-.49,0-.74a74.93,74.93,0,0,0-5.67-28.72l.79-.69c5.65-4.94,11.32-9.85,16.93-14.84,2.37-2.11,4.69-4.26,7-6.44L518.88,27.66a2,2,0,0,1-.74-2.88l1.34-2.1a8.81,8.81,0,0,1,9.36-3.84L610,37.17q7.89-6.95,16.32-13.25c6-4.51,12.24-8.79,18.76-12.73q4.88-3,10-5.63A101.78,101.78,0,0,1,665.68.69a10.54,10.54,0,0,1,12.69,15.42Z"/></g></g></svg>